<svg width="200" height="200" viewBox="0 0 200 200" fill="none" xmlns="http://www.w3.org/2000/svg">
<path d="M99.9996 47.9839C71.7738 47.9839 48.3867 70.9678 48.3867 99.5968C48.3867 128.226 71.3706 151.21 99.9996 151.21C128.629 151.21 151.613 127.823 151.613 99.5968C151.613 71.371 128.225 47.9839 99.9996 47.9839ZM99.9996 132.661C81.8545 132.661 66.9351 117.742 66.9351 99.5968C66.9351 81.4516 81.8545 66.5323 99.9996 66.5323C118.145 66.5323 133.064 81.4516 133.064 99.5968C133.064 117.742 118.145 132.661 99.9996 132.661Z" fill="#CCC3BC"/>
<path d="M153.627 58.4652C160.085 58.4652 165.321 53.2298 165.321 46.7717C165.321 40.3135 160.085 35.0781 153.627 35.0781C147.169 35.0781 141.934 40.3135 141.934 46.7717C141.934 53.2298 147.169 58.4652 153.627 58.4652Z" fill="#CCC3BC"/>
<path d="M183.871 16.5323C173.387 5.64516 158.468 0 141.532 0H58.4677C23.3871 0 0 23.3871 0 58.4677V141.129C0 158.468 5.64516 173.387 16.9355 184.274C27.8226 194.758 42.3387 200 58.871 200H141.129C158.468 200 172.984 194.355 183.468 184.274C194.355 173.79 200 158.871 200 141.532V58.4677C200 41.5323 194.355 27.0161 183.871 16.5323ZM182.258 141.532C182.258 154.032 177.823 164.113 170.565 170.968C163.306 177.823 153.226 181.452 141.129 181.452H58.871C46.7742 181.452 36.6935 177.823 29.4355 170.968C22.1774 163.71 18.5484 153.629 18.5484 141.129V58.4677C18.5484 46.371 22.1774 36.2903 29.4355 29.0323C36.2903 22.1774 46.7742 18.5484 58.871 18.5484H141.935C154.032 18.5484 164.113 22.1774 171.371 29.4355C178.226 36.6936 182.258 46.7742 182.258 58.4677V141.532Z" fill="#CCC3BC"/>
</svg>
