<svg width="200" height="200" viewBox="0 0 200 200" fill="none" xmlns="http://www.w3.org/2000/svg">
<path d="M184.162 13C184.909 13 185.627 13.2971 186.155 13.826C186.684 14.3548 186.981 15.0721 186.981 15.82V184.2C186.981 184.948 186.684 185.665 186.155 186.194C185.627 186.723 184.909 187.02 184.162 187.02H15.8184C15.0706 187.02 14.3534 186.723 13.8246 186.194C13.2958 185.665 12.9987 184.948 12.9987 184.2V15.82C12.9987 15.0721 13.2958 14.3548 13.8246 13.826C14.3534 13.2971 15.0706 13 15.8184 13H184.182M184.182 1.26434e-05H15.8184C11.6231 1.26434e-05 7.59964 1.66676 4.63311 4.63358C1.66658 7.60041 0 11.6243 0 15.82V184.2C0.00529942 188.392 1.67422 192.411 4.64017 195.374C7.60613 198.336 11.6266 200 15.8184 200H184.182C188.377 200 192.4 198.333 195.367 195.366C198.333 192.4 200 188.376 200 184.18V15.82C200 13.7408 199.59 11.682 198.794 9.76134C197.998 7.84066 196.831 6.09579 195.36 4.62651C193.889 3.15722 192.143 1.99235 190.221 1.19849C188.3 0.404641 186.241 -0.00261592 184.162 1.26434e-05H184.182Z" fill="#CCC3BC"/>
<path d="M69.993 72.8H46.5353V156.26H69.993V72.8Z" fill="#CCC3BC"/>
<path d="M126.447 72.8C106.349 72.8 105.989 84.42 105.989 85.22V72.8H81.9918V156.26H105.989V108.62C105.989 104.9 107.089 96.9 118.448 96.9C129.807 96.9 129.707 108.36 129.707 108.36V156.36H153.445V104.36C153.445 79.7 139.986 72.8 126.447 72.8Z" fill="#CCC3BC"/>
<path d="M58.2542 67.18C64.7263 67.18 69.973 61.9328 69.973 55.46C69.973 48.9872 64.7263 43.74 58.2542 43.74C51.782 43.74 46.5353 48.9872 46.5353 55.46C46.5353 61.9328 51.782 67.18 58.2542 67.18Z" fill="#CCC3BC"/>
</svg>
