<svg width="200" height="200" viewBox="0 0 200 200" fill="none" xmlns="http://www.w3.org/2000/svg">
<path d="M34.4879 35.0642C40.9727 40.1178 43.4053 39.7322 55.582 38.953L170.381 32.3405C172.815 32.3405 170.79 30.0105 169.979 29.6232L150.912 16.4016C147.26 13.681 142.392 10.5652 133.065 11.3446L21.9055 19.122C17.8517 19.5077 17.0419 21.452 18.6565 23.0106L34.4879 35.0642ZM41.3802 60.7283V176.598C41.3802 182.825 44.6242 185.155 51.9256 184.77L178.089 177.767C185.393 177.382 186.207 173.097 186.207 168.04V52.9476C186.207 47.8971 184.183 45.1734 179.71 45.5621L47.8684 52.9476C43.003 53.3397 41.3802 55.6744 41.3802 60.7283ZM165.928 66.9439C166.738 70.447 165.928 73.9468 162.27 74.3404L156.191 75.5022V161.044C150.912 163.766 146.046 165.321 141.991 165.321C135.497 165.321 133.871 163.376 129.008 157.546L89.2454 97.6663V155.603L101.827 158.326C101.827 158.326 101.827 165.321 91.6763 165.321L63.6914 166.878C62.8785 165.321 63.6915 161.437 66.53 160.657L73.8328 158.717V82.1148L63.6931 81.3354C62.88 77.8323 64.9053 72.7818 70.5887 72.3896L100.61 70.4484L141.991 131.108V77.4465L131.44 76.2849C130.63 72.0025 133.871 68.8929 137.928 68.5073L165.928 66.9439ZM12.5723 8.62398L128.196 0.456105C142.395 -0.712115 146.048 0.0704172 154.973 6.28917L191.88 31.1739C197.971 35.4531 200 36.6181 200 41.283V177.767C200 186.32 196.752 191.379 185.395 192.152L51.1224 199.931C42.5973 200.321 38.54 199.155 34.0756 193.708L6.89557 159.88C2.02528 153.653 0 148.994 0 143.543V22.2283C0 15.2333 3.24903 9.39865 12.5723 8.62398Z" fill="#CCC3BC"/>
</svg>
